<?xml version="1.0" encoding="UTF-8"?>
<svg id="g" data-name="Layer 4" xmlns="http://www.w3.org/2000/svg" viewBox="0 0 45 53">
  <defs>
    <style>
      .j {
        fill: #eeceab;
      }

      .k {
        fill: #c29068;
      }

      .l {
        fill: #3b393a;
      }

      .m {
        fill: #fff;
      }

      .n {
        fill: #221f20;
      }
    </style>
  </defs>
  <path class="n" d="M39.79,45.9s7.81-5.01,4.31-17.98c0,0-2.71-8.51-5.34-11.14,0,0-3.75-8.83-15.79-8.35,0,0-11.32.56-14.91,6.84,0,0-4.54,5.09-4.78,7.08,0,0-6.22,9.94-1.51,18.21,0,0,3.19,6.84,9.81,8.99,0,0,17.06,5.73,28.22-3.66Z"/>
  <path class="n" d="M13.59,11.58s10.77-4.63,19.13,0C32.72,11.58,34.11-.18,22.78,0,22.78,0,12.2.19,13.59,11.58Z"/>
  <path class="j" d="M9.26,25.61s10.17-.4,14.01-7.54c0,0,4.96,5.68,13.86,8.41,0,0,2.55,17.55-4.63,23.72-.28.24-2.81,1.85-3.71,2.14-1.46.47-6.84,1.07-8.72.27,0,0-6.05-1.42-9.05-6.46,0,0-3.27-5.52-2.74-11.17l.98-9.37Z"/>
  <path class="j" d="M23.29,18.26c-.06,0-.11-.05-.11-.11l-.12-6.66c0-.06.05-.11.11-.11.07,0,.11.05.11.11l.12,6.66c0,.06-.05.11-.11.11h0Z"/>
  <path class="j" d="M7.84,34.83s-.79-2.33-2.71-2.53c0,0-1.89.28-1.71,2.88,0,0,.27,2.46,1.71,3.24,0,0,1.58,1.27,2.57-.38l.14-3.21Z"/>
  <path class="j" d="M38,35.2s1.01-2.24,2.94-2.25c0,0,1.85.46,1.42,3.03,0,0-.51,2.42-2.02,3.06,0,0-1.69,1.11-2.52-.63l.18-3.21Z"/>
  <path class="n" d="M41.85,35.65s-.22-1.14-.67-1.4c0,0-.46-.12-.98-.01-.08.02-.17.04-.25.07-.11.04-.21.09-.31.15-.42.27-.79.78-.88,1.74,0,0-.48,1.9,1,2.22,0,0,.35.18-.26.15,0,0-1.2-.22-1.28-1.45,0,0-.03-1.57.36-2.09,0,0,.73-1.18,1.65-1.27,0,0,.94-.16,1.46.68,0,0,.27.67.17,1.2Z"/>
  <path class="n" d="M39.42,34.62s.97-.08,1.3.87c0,0,.32-.69-.81-1.26l-.48.38Z"/>
  <path class="n" d="M3.91,34.99s.27-1.13.74-1.37c0,0,.46-.1.98.03.08.02.16.05.25.08.1.04.21.1.31.17.41.29.76.82.81,1.78,0,0,.4,1.92-1.1,2.18,0,0-.35.16.25.16,0,0,1.21-.16,1.34-1.4,0,0,.1-1.57-.26-2.1,0,0-.68-1.21-1.59-1.35,0,0-.93-.2-1.49.62,0,0-.3.66-.22,1.19Z"/>
  <path class="n" d="M6.37,34.07s-.97-.13-1.33.82c0,0-.29-.7.87-1.22l.47.4Z"/>
  <path class="l" d="M30.89,9.66c-.52-.87-1.73-1.39-2.69-1.72-3.01-1.02-6.23-.8-9.28-.04-.84.21-1.71.43-2.49.8-.48.24-1.3.74-1.15,1.21.09.17.4.24.85.22.47-.02,1.06-.18,1.55-.32,2.8-.84,5.77-1.35,8.66-.77,1.08.19,2.11.64,3.13,1.02.55.19,1.85.53,1.42-.37h0Z"/>
  <path class="n" d="M27.3,35.62c-.13,0-.27-.05-.37-.14-.23-.21-.25-.56-.04-.79.92-1.03,3.33-2.57,5.81-1.07.26.16.35.5.19.77-.16.26-.5.35-.77.19-2.3-1.4-4.31.77-4.4.86-.11.12-.26.18-.42.18Z"/>
  <path class="n" d="M31.52,30.89l1.64.69s1.42.67.56-.69c0,0-1.33-1.8-3.17-2.01,0,0-2.08-.28-3.45.76l-1.23,1.24s-.56.92.48.63c0,0,1.71-.93,3.06-.85,0,0,.97-.07,2.12.23Z"/>
  <path class="n" d="M19.56,35.3c-.15,0-.31-.06-.42-.18h0c-.08-.09-2.09-2.26-4.4-.86-.26.16-.61.08-.77-.19-.16-.26-.08-.61.19-.77,2.48-1.5,4.88.04,5.81,1.07.21.23.19.58-.04.79-.11.1-.24.14-.37.14Z"/>
  <path class="n" d="M15.34,30.57l-1.64.69s-1.42.67-.56-.69c0,0,1.33-1.8,3.17-2.01,0,0,2.08-.28,3.45.76l1.23,1.24s.56.92-.48.63c0,0-1.71-.93-3.06-.85,0,0-.97-.07-2.12.23Z"/>
  <g>
    <path class="k" d="M19.74,43.87s3.77-1.91,7.1.05c0,0-.85,2.3-2.46,3.11-.42.21-1.44.24-1.89.1-.84-.26-1.96-1.15-2.75-3.26Z"/>
    <path class="n" d="M23.24,47.44c-.31,0-.61-.03-.81-.09-.55-.17-1.94-.84-2.9-3.4l-.07-.19.18-.09c.16-.08,3.92-1.94,7.32.06l.16.09-.06.18c-.04.1-.9,2.4-2.57,3.23-.28.14-.78.21-1.24.21ZM20.02,43.99c.88,2.22,2.06,2.79,2.53,2.93.4.12,1.36.1,1.73-.09,1.26-.63,2.05-2.27,2.28-2.81-2.74-1.49-5.77-.36-6.54-.03Z"/>
  </g>
  <g>
    <path class="m" d="M20.07,44.42s3.83-1.49,6.46.05c0,0-.97,1.37-2.28,1.9-.32.13-1.2.2-1.56.09-.66-.2-1.68-.55-2.62-2.05Z"/>
    <path class="n" d="M23.2,46.74c-.23,0-.44-.02-.58-.06-.61-.18-1.73-.53-2.74-2.14l-.14-.23.25-.1c.16-.06,3.96-1.51,6.65.07l.21.12-.14.2c-.04.06-1.02,1.43-2.38,1.98-.23.09-.71.16-1.13.16ZM20.41,44.53c.87,1.27,1.78,1.55,2.34,1.72.3.09,1.13.03,1.41-.08.95-.38,1.72-1.24,2.03-1.63-2.1-1.06-4.91-.29-5.78,0Z"/>
  </g>
  <path class="n" d="M22.14,39.01s.09,1.71,1.97,1.79c0,0-.66.53-1.59.26-.25-.07-.44-.28-.5-.53-.08-.32-.14-.76.12-1.52Z"/>
</svg>