<?xml version="1.0" encoding="UTF-8"?>
<svg id="b" data-name="objects" xmlns="http://www.w3.org/2000/svg" viewBox="0 0 397.36 397.36">
  <defs>
    <style>
      .c {
        fill: #f9f4e7;
      }
    </style>
  </defs>
  <path class="c" d="M339.17,58.19C303.21,22.24,253.55,0,198.68,0S94.15,22.24,58.19,58.19C22.24,94.15,0,143.81,0,198.68s22.24,104.53,58.19,140.49c35.96,35.95,85.63,58.19,140.49,58.19,109.73,0,198.68-88.95,198.68-198.68,0-54.87-22.24-104.53-58.19-140.49ZM257.55,183.27l-3.31,26.57c-.56,4.45-4.32,7.79-8.78,7.79h-43.05v111.12c-4.54.41-9.14.62-13.79.62-10.4,0-20.55-1.04-30.37-3.02v-108.72h-33.11c-3.04,0-5.52-2.5-5.52-5.54v-33.26c0-3.05,2.48-5.54,5.52-5.54h33.11v-49.88c0-30.61,24.72-55.42,55.2-55.42h38.63c3.04,0,5.52,2.49,5.52,5.54v33.25c0,3.05-2.48,5.54-5.52,5.54h-27.6c-12.19,0-22.07,9.93-22.07,22.17v38.8h46.36c5.32,0,9.43,4.68,8.78,9.98Z"/>
</svg>