<?xml version="1.0" encoding="UTF-8"?>
<svg id="g" data-name="Layer 4" xmlns="http://www.w3.org/2000/svg" viewBox="0 0 741.95 312.25">
  <defs>
    <style>
      .j {
        fill: #eeceab;
      }

      .k {
        fill: #c29068;
      }

      .l {
        fill: #3b393a;
      }

      .m {
        fill: #fff;
      }

      .n {
        fill: #221f20;
      }

      .o {
        fill: #f9f4e7;
      }
    </style>
  </defs>
  <g>
    <path class="n" d="M200.27,243.04s34.92-22.45,19.24-80.53c0,0-12.12-38.13-23.87-49.89,0,0-16.75-39.55-70.56-37.42,0,0-50.6,2.49-66.64,30.65,0,0-20.31,22.81-21.38,31.71,0,0-27.79,44.54-6.77,81.6,0,0,14.25,30.65,43.83,40.27,0,0,76.26,25.66,126.15-16.39Z"/>
    <path class="n" d="M83.19,89.28s48.13-20.75,85.48,0c0,0,6.22-52.7-44.4-51.87,0,0-47.3.83-41.08,51.87Z"/>
    <path class="j" d="M63.83,152.14s45.46-1.78,62.62-33.8c0,0,22.16,25.43,61.94,37.66,0,0,11.4,78.64-20.69,106.29-1.26,1.08-12.54,8.27-16.59,9.58-6.51,2.11-30.58,4.8-38.98,1.23,0,0-27.06-6.38-40.46-28.94,0,0-14.62-24.72-12.24-50.05l4.4-41.98Z"/>
    <path class="j" d="M126.53,119.21c-.27,0-.5-.22-.5-.49l-.54-29.83c0-.28.21-.5.49-.51.28-.03.5.21.51.49l.54,29.83c0,.28-.21.5-.49.51h0Z"/>
    <path class="j" d="M57.46,193.44s-3.52-10.42-12.1-11.34c0,0-8.43,1.26-7.66,12.89,0,0,1.23,11.01,7.66,14.53,0,0,7.05,5.67,11.49-1.69l.61-14.4Z"/>
    <path class="j" d="M192.28,195.11s4.53-10.02,13.15-10.1c0,0,8.26,2.08,6.36,13.57,0,0-2.3,10.84-9.04,13.71,0,0-7.57,4.95-11.27-2.8l.8-14.39Z"/>
    <path class="n" d="M209.48,197.1s-.98-5.13-3.01-6.26c0,0-2.04-.55-4.36-.05-.37.08-.74.19-1.12.32-.47.17-.94.4-1.4.69-1.89,1.2-3.54,3.51-3.95,7.81,0,0-2.15,8.53,4.46,9.95,0,0,1.55.8-1.16.67,0,0-5.36-.96-5.7-6.52,0,0-.14-7.04,1.6-9.37,0,0,3.28-5.3,7.38-5.71,0,0,4.21-.72,6.53,3.06,0,0,1.19,3.01.74,5.39Z"/>
    <path class="n" d="M198.65,192.49s4.35-.37,5.8,3.92c0,0,1.43-3.09-3.64-5.63l-2.16,1.71Z"/>
    <path class="n" d="M39.89,194.17s1.2-5.08,3.29-6.12c0,0,2.06-.46,4.36.15.36.1.73.22,1.1.37.46.19.92.44,1.36.75,1.83,1.28,3.38,3.66,3.6,7.98,0,0,1.77,8.61-4.9,9.75,0,0-1.59.73,1.13.73,0,0,5.39-.73,5.98-6.26,0,0,.45-7.03-1.18-9.43,0,0-3.04-5.44-7.12-6.03,0,0-4.17-.91-6.66,2.77,0,0-1.32,2.95-.98,5.35Z"/>
    <path class="n" d="M50.91,190.05s-4.33-.56-5.97,3.66c0,0-1.29-3.15,3.88-5.46l2.08,1.8Z"/>
    <path class="l" d="M160.49,80.68c-2.33-3.89-7.73-6.23-12.03-7.7-13.44-4.56-27.85-3.6-41.46-.2-3.75.95-7.64,1.93-11.15,3.57-2.17,1.06-5.82,3.29-5.13,5.42.4.75,1.79,1.09,3.79.97,2.09-.11,4.73-.79,6.92-1.44,12.52-3.77,25.81-6.03,38.72-3.47,4.84.84,9.43,2.89,13.99,4.58,2.47.85,8.27,2.39,6.37-1.67l-.03-.06Z"/>
    <path class="n" d="M144.43,196.99c-.6,0-1.2-.21-1.67-.64-1.02-.92-1.11-2.5-.19-3.52,4.13-4.6,14.88-11.52,25.96-4.79,1.18.72,1.56,2.26.84,3.44-.72,1.18-2.25,1.55-3.44.84-10.28-6.25-19.27,3.44-19.65,3.86-.49.54-1.17.82-1.86.82Z"/>
    <path class="n" d="M163.29,175.78l7.32,3.07s6.34,3.01,2.48-3.07c0,0-5.95-8.04-14.19-9.02,0,0-9.29-1.24-15.43,3.4l-5.49,5.56s-2.48,4.12,2.16,2.81c0,0,7.65-4.18,13.67-3.79,0,0,4.32-.33,9.48,1.05Z"/>
    <path class="n" d="M109.84,195.57c-.68,0-1.36-.28-1.86-.83-.39-.43-9.37-10.11-19.65-3.86-1.18.72-2.72.34-3.44-.84s-.34-2.72.84-3.44c11.08-6.74,21.83.18,25.96,4.79.92,1.03.84,2.61-.19,3.53-.48.43-1.07.64-1.67.64Z"/>
    <path class="n" d="M90.98,174.36l-7.32,3.07s-6.34,3.01-2.48-3.07c0,0,5.95-8.04,14.19-9.02,0,0,9.29-1.24,15.43,3.4l5.49,5.56s2.48,4.12-2.16,2.81c0,0-7.65-4.18-13.67-3.79,0,0-4.32-.33-9.48,1.05Z"/>
    <g>
      <path class="k" d="M110.65,233.96s16.84-8.55,31.76.22c0,0-3.8,10.32-11,13.94-1.87.94-6.45,1.07-8.45.46-3.77-1.15-8.77-5.15-12.31-14.62Z"/>
      <path class="n" d="M126.3,249.95c-1.41,0-2.73-.14-3.63-.42-2.47-.75-8.66-3.74-12.95-15.22l-.31-.84.8-.4c.71-.36,17.5-8.69,32.71.25l.72.42-.29.78c-.16.44-4.02,10.73-11.49,14.48-1.26.64-3.5.94-5.56.94ZM111.92,234.48c3.94,9.92,9.21,12.5,11.33,13.14,1.78.54,6.06.43,7.71-.4,5.65-2.84,9.16-10.19,10.19-12.61-12.25-6.67-25.8-1.62-29.23-.14Z"/>
    </g>
    <g>
      <path class="m" d="M112.13,236.4s17.1-6.67,28.85.24c0,0-4.32,6.16-10.21,8.53-1.42.57-5.37.88-6.95.4-2.97-.91-7.51-2.45-11.69-9.17Z"/>
      <path class="n" d="M126.11,246.81c-1.01,0-1.95-.08-2.58-.28-2.71-.83-7.75-2.37-12.25-9.6l-.64-1.02,1.12-.44c.72-.28,17.69-6.76,29.72.31l.93.55-.62.89c-.18.26-4.56,6.43-10.66,8.89-1.04.42-3.17.71-5.03.71ZM113.67,236.92c3.9,5.69,7.97,6.93,10.45,7.69,1.35.41,5.06.12,6.28-.37,4.23-1.71,7.67-5.55,9.08-7.29-9.38-4.76-21.96-1.29-25.81-.03Z"/>
    </g>
    <path class="n" d="M121.38,212.17s.42,7.64,8.79,8.01c0,0-2.93,2.36-7.1,1.18-1.11-.31-1.96-1.26-2.23-2.38-.35-1.44-.63-3.42.54-6.81Z"/>
  </g>
  <g>
    <path class="o" d="M306.84,106.03h-36.36V27.45h36.36c6.94,0,12.69.99,17.11,2.93,4.49,1.98,8.27,4.87,11.22,8.6,2.89,3.65,5.01,7.94,6.3,12.74,1.25,4.64,1.88,9.61,1.88,14.78,0,8.19-.94,14.45-2.88,19.13-1.93,4.67-4.66,8.65-8.11,11.83-3.5,3.22-7.35,5.41-11.43,6.5-5.11,1.37-9.85,2.07-14.08,2.07ZM277.48,99.03h29.36c3.62,0,7.75-.62,12.28-1.83,2.98-.79,5.84-2.44,8.5-4.88,2.7-2.49,4.85-5.64,6.39-9.36,1.56-3.77,2.35-9.31,2.35-16.46,0-4.55-.55-8.91-1.64-12.96-1.04-3.88-2.73-7.31-5.03-10.21-2.24-2.82-5.11-5.02-8.56-6.54-3.52-1.55-8.33-2.34-14.29-2.34h-29.36v64.58ZM301.52,89.77h-8.92v-46.11h9.02c6.75,0,11.77,1.81,14.93,5.38,3.09,3.5,4.59,9.35,4.59,17.89,0,6.27-.64,10.79-1.95,13.82-1.43,3.3-3.5,5.68-6.17,7.08-2.49,1.3-6.24,1.94-11.49,1.94ZM299.6,82.77h1.92c5.28,0,7.43-.71,8.24-1.14,1.24-.65,2.22-1.85,3-3.66.63-1.45,1.37-4.53,1.37-11.04,0-8.31-1.54-11.8-2.83-13.26-1.77-2-5.03-3.02-9.68-3.02h-2.02v32.11Z"/>
    <path class="o" d="M416.58,106.03h-30.81l-3.58-11.82h-19.9l-3.49,11.82h-30.25l29.54-78.58h28.97l29.53,78.58ZM390.96,99.03h15.51l-24.27-64.58h-19.28l-24.27,64.58h14.91l3.49-11.82h30.33l3.58,11.82ZM384.93,78.73h-25.18l12.52-41.21,12.66,41.21ZM369.19,71.73h6.26l-3.15-10.25-3.11,10.25Z"/>
    <path class="o" d="M494.38,106.03h-35.62l-13.82-26.96-7.06,7.4v19.57h-29.12V27.45h29.12v21.08l18.06-21.08h39.28l-29.97,31,29.14,47.58ZM463.03,99.03h18.85l-25.45-41.55,22.27-23.04h-19.56l-28.28,33.02v-33.02h-15.12v64.58h15.12v-15.37l15.8-16.55,16.36,31.92Z"/>
    <path class="o" d="M541.82,106.03h-29.22V27.45h61.69v22.38h-32.47v5.5h27.73v21.45h-27.73v29.25ZM519.6,99.03h15.22v-29.25h27.73v-7.45h-27.73v-19.5h32.47v-8.38h-47.69v64.58Z"/>
    <path class="o" d="M611.36,107.25c-8.57,0-15.83-1.42-21.58-4.21-5.89-2.87-10.72-7.43-14.35-13.58-3.59-6.08-5.42-13.71-5.42-22.68,0-12.59,3.63-22.61,10.79-29.77,7.16-7.16,17.14-10.79,29.67-10.79s22.91,3.57,30,10.61c7.1,7.05,10.7,16.93,10.7,29.36,0,8.9-1.56,16.37-4.63,22.21-3.12,5.94-7.7,10.62-13.6,13.93-5.83,3.26-13.09,4.91-21.61,4.91ZM610.49,33.23c-10.75,0-18.84,2.86-24.72,8.74-5.88,5.88-8.74,14-8.74,24.82,0,7.69,1.5,14.13,4.45,19.12,2.96,5.01,6.68,8.55,11.38,10.84,4.78,2.33,11.01,3.5,18.51,3.5s13.42-1.35,18.19-4.02c4.76-2.67,8.3-6.29,10.82-11.07,2.54-4.82,3.82-11.2,3.82-18.95,0-10.65-2.82-18.63-8.63-24.4-5.74-5.69-14.17-8.58-25.07-8.58ZM610.63,90.7c-5.68,0-10.26-2.01-13.63-5.97-3.27-3.85-4.86-9.68-4.86-17.84s1.6-14.1,4.89-17.95c3.38-3.96,7.89-5.96,13.4-5.96s10.29,1.97,13.69,5.86c3.33,3.8,4.94,9.39,4.94,17.07,0,8.94-1.55,15.13-4.73,18.91-3.29,3.9-7.9,5.88-13.71,5.88ZM610.44,49.97c-3.42,0-6.06,1.15-8.08,3.51-2.1,2.46-3.21,7.09-3.21,13.4s1.1,10.85,3.19,13.31c2,2.36,4.72,3.5,8.3,3.5s6.43-1.11,8.36-3.39c1.41-1.67,3.08-5.52,3.08-14.4,0-5.83-1.08-10.03-3.21-12.47-2.04-2.33-4.79-3.47-8.42-3.47Z"/>
    <path class="o" d="M729.66,106.03h-32.83l-12.82-23.71c-1.75-3.3-2.72-4.16-2.97-4.34-.55-.38-1.16-.66-1.82-.82v28.87h-29.22V27.45h40.37c7.27,0,12.75.63,16.75,1.93,4.34,1.41,7.88,4.05,10.53,7.85,2.62,3.76,3.95,8.33,3.95,13.6,0,4.59-1.02,8.64-3.02,12.05-1.98,3.37-4.74,6.14-8.19,8.23-.25.15-.52.3-.79.45.89.82,1.95,2,3.23,3.6,1.72,2.14,2.86,3.8,3.5,5.08l13.33,25.81ZM701,99.03h17.16l-8.07-15.64c-.25-.5-.9-1.61-2.72-3.86-1.88-2.33-2.66-2.98-2.86-3.12-.64-.47-1.98-1.21-4.82-2.16l-11.85-3.96,12.18-2.77c2.91-.66,5.18-1.47,6.74-2.42,2.48-1.5,4.37-3.39,5.78-5.78,1.37-2.32,2.06-5.18,2.06-8.5,0-3.86-.88-7-2.69-9.59-1.78-2.55-4.05-4.25-6.95-5.19-3.25-1.05-8.16-1.59-14.59-1.59h-33.37v64.58h15.22v-29.05h5.45c2.73,0,5.23.77,7.41,2.28,1.71,1.23,3.31,3.37,5.1,6.76l10.82,20.01ZM685.04,63.45h-12.83v-21.55h13.22c5,0,8.34.85,10.51,2.68,1.57,1.33,3.44,3.79,3.44,8,0,2.35-.71,4.46-2.12,6.29-1.43,1.86-3.4,3.09-5.67,3.54-4.11.92-5.66,1.04-6.55,1.04ZM679.22,56.45h5.83c.26,0,1.41-.06,5.09-.89.72-.14,1.17-.43,1.58-.97.45-.59.67-1.23.67-2.02,0-1.65-.55-2.3-.96-2.65-.2-.17-1.45-1.03-5.99-1.03h-6.22v7.55Z"/>
  </g>
  <g>
    <path class="o" d="M273.47,143.56h58.18l22.44,87.11,22.28-87.11h58.14v143.16h-36.23v-109.18l-27.92,109.18h-32.79l-27.86-109.18v109.18h-36.23v-143.16Z"/>
    <path class="o" d="M537.95,263.09h-50.22l-6.98,23.63h-45.17l53.81-143.16h48.25l53.8,143.16h-46.33l-7.16-23.63ZM528.77,232.14l-15.8-51.46-15.64,51.46h31.44Z"/>
    <path class="o" d="M593.28,143.56h65.72c12.95,0,23.42,1.76,31.4,5.27,7.97,3.52,14.57,8.56,19.78,15.14,5.21,6.58,8.98,14.23,11.33,22.95,2.34,8.72,3.52,17.97,3.52,27.73,0,15.3-1.74,27.17-5.22,35.6-3.48,8.43-8.32,15.5-14.5,21.19-6.19,5.7-12.83,9.49-19.92,11.38-9.7,2.6-18.49,3.91-26.37,3.91h-65.72v-143.16ZM637.52,175.98v78.22h10.84c9.24,0,15.82-1.03,19.73-3.08s6.96-5.63,9.18-10.74c2.21-5.11,3.32-13.39,3.32-24.85,0-15.17-2.48-25.55-7.42-31.15-4.95-5.6-13.15-8.4-24.61-8.4h-11.04Z"/>
  </g>
  <path class="o" d="M741.95,312.25H0V0h741.95v312.25ZM7,305.25h727.95V7H7v298.25Z"/>
  <path class="o" d="M741.95,312.25H251.29V0h490.66v312.25ZM258.29,305.25h476.66V7h-476.66v298.25Z"/>
  <path class="o" d="M741.95,312.25H251.29V118.94h490.66v193.31ZM258.29,305.25h476.66V125.94h-476.66v179.31Z"/>
</svg>