<?xml version="1.0" encoding="UTF-8"?>
<svg id="b" data-name="objects" xmlns="http://www.w3.org/2000/svg" viewBox="0 0 397.36 397.35">
  <defs>
    <style>
      .c {
        fill: #f9f4e7;
      }
    </style>
  </defs>
  <path class="c" d="M248.99,112.43h-100.62c-19.84,0-35.94,16.1-35.94,35.94v100.62c0,19.83,16.1,35.93,35.94,35.93h100.62c19.84,0,35.94-16.1,35.94-35.93v-100.62c0-19.84-16.1-35.94-35.94-35.94ZM198.78,252.58c-29.75,0-53.9-24.15-53.9-53.9s24.15-53.91,53.9-53.91,53.91,24.15,53.91,53.91-24.15,53.9-53.91,53.9ZM256.28,151.96c-5.95,0-10.78-4.84-10.78-10.78s4.83-10.78,10.78-10.78,10.78,4.83,10.78,10.78-4.84,10.78-10.78,10.78ZM198.78,162.74c-19.8,0-35.93,16.13-35.93,35.94s16.13,35.93,35.93,35.93,35.94-16.13,35.94-35.93-16.14-35.94-35.94-35.94ZM248.99,112.43h-100.62c-19.84,0-35.94,16.1-35.94,35.94v100.62c0,19.83,16.1,35.93,35.94,35.93h100.62c19.84,0,35.94-16.1,35.94-35.93v-100.62c0-19.84-16.1-35.94-35.94-35.94ZM198.78,252.58c-29.75,0-53.9-24.15-53.9-53.9s24.15-53.91,53.9-53.91,53.91,24.15,53.91,53.91-24.15,53.9-53.91,53.9ZM256.28,151.96c-5.95,0-10.78-4.84-10.78-10.78s4.83-10.78,10.78-10.78,10.78,4.83,10.78,10.78-4.84,10.78-10.78,10.78ZM198.78,162.74c-19.8,0-35.93,16.13-35.93,35.94s16.13,35.93,35.93,35.93,35.94-16.13,35.94-35.93-16.14-35.94-35.94-35.94ZM339.17,58.19C303.21,22.24,253.55,0,198.68,0S94.15,22.24,58.19,58.19C22.24,94.15,0,143.81,0,198.68s22.24,104.53,58.19,140.48c35.96,35.95,85.62,58.19,140.49,58.19,109.73,0,198.68-88.95,198.68-198.67,0-54.87-22.24-104.53-58.19-140.49ZM302.89,252.58c0,27.78-22.53,50.31-50.31,50.31h-107.8c-27.78,0-50.31-22.53-50.31-50.31v-107.81c0-27.78,22.53-50.31,50.31-50.31h107.8c27.78,0,50.31,22.53,50.31,50.31v107.81ZM248.99,112.43h-100.62c-19.84,0-35.94,16.1-35.94,35.94v100.62c0,19.83,16.1,35.93,35.94,35.93h100.62c19.84,0,35.94-16.1,35.94-35.93v-100.62c0-19.84-16.1-35.94-35.94-35.94ZM198.78,252.58c-29.75,0-53.9-24.15-53.9-53.9s24.15-53.91,53.9-53.91,53.91,24.15,53.91,53.91-24.15,53.9-53.91,53.9ZM256.28,151.96c-5.95,0-10.78-4.84-10.78-10.78s4.83-10.78,10.78-10.78,10.78,4.83,10.78,10.78-4.84,10.78-10.78,10.78ZM198.78,162.74c-19.8,0-35.93,16.13-35.93,35.94s16.13,35.93,35.93,35.93,35.94-16.13,35.94-35.93-16.14-35.94-35.94-35.94ZM248.99,112.43h-100.62c-19.84,0-35.94,16.1-35.94,35.94v100.62c0,19.83,16.1,35.93,35.94,35.93h100.62c19.84,0,35.94-16.1,35.94-35.93v-100.62c0-19.84-16.1-35.94-35.94-35.94ZM198.78,252.58c-29.75,0-53.9-24.15-53.9-53.9s24.15-53.91,53.9-53.91,53.91,24.15,53.91,53.91-24.15,53.9-53.91,53.9ZM256.28,151.96c-5.95,0-10.78-4.84-10.78-10.78s4.83-10.78,10.78-10.78,10.78,4.83,10.78,10.78-4.84,10.78-10.78,10.78ZM198.78,162.74c-19.8,0-35.93,16.13-35.93,35.94s16.13,35.93,35.93,35.93,35.94-16.13,35.94-35.93-16.14-35.94-35.94-35.94ZM248.99,112.43h-100.62c-19.84,0-35.94,16.1-35.94,35.94v100.62c0,19.83,16.1,35.93,35.94,35.93h100.62c19.84,0,35.94-16.1,35.94-35.93v-100.62c0-19.84-16.1-35.94-35.94-35.94ZM198.78,252.58c-29.75,0-53.9-24.15-53.9-53.9s24.15-53.91,53.9-53.91,53.91,24.15,53.91,53.91-24.15,53.9-53.91,53.9ZM256.28,151.96c-5.95,0-10.78-4.84-10.78-10.78s4.83-10.78,10.78-10.78,10.78,4.83,10.78,10.78-4.84,10.78-10.78,10.78ZM198.78,162.74c-19.8,0-35.93,16.13-35.93,35.94s16.13,35.93,35.93,35.93,35.94-16.13,35.94-35.93-16.14-35.94-35.94-35.94Z"/>
  <path class="c" d="M198.78,234.61c-19.8,0-35.93-16.13-35.93-35.93s16.13-35.94,35.93-35.94,35.94,16.13,35.94,35.94-16.14,35.93-35.94,35.93Z"/>
</svg>