<?xml version="1.0" encoding="UTF-8"?>
<svg id="b" data-name="objects" xmlns="http://www.w3.org/2000/svg" viewBox="0 0 397.35 397.35">
  <defs>
    <style>
      .c {
        fill: #f9f4e7;
      }
    </style>
  </defs>
  <path class="c" d="M339.16,58.19C303.21,22.24,253.53,0,198.67,0S94.14,22.24,58.19,58.19,0,143.81,0,198.67s22.24,104.54,58.19,140.49,85.62,58.19,140.48,58.19c109.73,0,198.68-88.95,198.68-198.68,0-54.86-22.24-104.53-58.19-140.48ZM293.18,167.22c0,2.14-1.77,3.89-3.91,3.83-40.12-1.13-51.22-19.63-51.22-19.63v94.51c0,36.97-29.97,66.94-66.94,66.94-39.49,0-70.99-34.19-66.52-74.59,3.39-30.61,28.09-55.39,58.7-58.85,4.14-.47,8.22-.56,12.2-.3,1.98.12,3.49,1.83,3.49,3.82v27.89c0,2.32-2.03,4.04-4.34,3.78-2.6-.29-5.3-.26-8.06.12-13.87,1.93-25.04,13.32-26.73,27.23-2.4,19.68,13.38,36.34,32.79,35.42,16.98-.8,29.97-15.59,29.97-32.59V88.31c0-2.12,1.71-3.83,3.83-3.83h31.73c2.03,0,3.8,1.54,3.94,3.57,1.45,21.89,16.23,45.75,47.35,47.51,2.07.12,3.72,1.76,3.72,3.83v27.83Z"/>
</svg>